<?xml version="1.0" standalone="no"?>
<!DOCTYPE svg PUBLIC "-//W3C//DTD SVG 20010904//EN"
 "http://www.w3.org/TR/2001/REC-SVG-20010904/DTD/svg10.dtd">
<svg version="1.0" xmlns="http://www.w3.org/2000/svg"
 width="260.000000pt" height="260.000000pt" viewBox="0 0 260.000000 260.000000"
 preserveAspectRatio="xMidYMid meet">
<metadata>
Created by potrace 1.11, written by Peter Selinger 2001-2013
</metadata>
<g transform="translate(0.000000,260.000000) scale(0.100000,-0.100000)"
fill="#000000" stroke="none">
<path d="M1155 2584 c-314 -48 -554 -164 -761 -369 -184 -182 -304 -404 -360
-667 -25 -116 -25 -380 0 -496 87 -406 335 -727 701 -910 483 -241 1084 -141
1471 243 184 183 304 404 360 667 25 116 25 380 0 496 -56 263 -176 485 -360
667 -178 176 -385 289 -636 346 -83 19 -344 34 -415 23z m-193 -739 c135 -28
208 -78 255 -173 25 -51 28 -67 28 -162 0 -92 -3 -112 -26 -161 -67 -143 -206
-208 -441 -209 l-108 0 0 -195 0 -195 -110 0 -110 0 0 555 0 555 223 0 c153 0
243 -5 289 -15z m678 -527 c0 -344 10 -383 96 -395 57 -7 109 12 155 58 l39
39 0 285 0 285 110 0 110 0 0 -420 0 -420 -89 0 -90 0 -6 48 c-11 77 -11 78
-65 29 -78 -70 -130 -91 -225 -92 -70 0 -86 4 -127 28 -30 18 -57 44 -74 73
-48 81 -54 133 -54 457 l0 297 110 0 110 0 0 -272z"/>
<path d="M670 1500 l0 -182 113 4 c96 3 118 7 157 28 63 35 93 94 88 173 -8
113 -64 149 -240 155 l-118 4 0 -182z"/>
</g>
</svg>
